G04 DipTrace 2.2.0.9*
%INBottomSilk.ger*%
%MOIN*%
%ADD10C,0.0098*%
%ADD12C,0.003*%
%ADD40C,0.0077*%
%ADD41C,0.0093*%
%FSLAX44Y44*%
%SFA1B1*%
%OFA0B0*%
G04*
G70*
G90*
G75*
G01*
%LNBotSilk*%
%LPD*%
X10065Y6690D2*
D10*
X4065D1*
Y4690D1*
X10065D1*
Y6690D1*
X9065Y4690D2*
Y6690D1*
X11430Y6270D2*
D12*
X11610D1*
X11130Y6240D2*
X11340D1*
X11448D2*
X11628D1*
X11130Y6210D2*
X11340D1*
X11465D2*
X11645D1*
X11130Y6180D2*
X11340D1*
X11478D2*
X11658D1*
X11130Y6150D2*
X11340D1*
X11489D2*
X11669D1*
X11130Y6120D2*
X11340D1*
X11500D2*
X11680D1*
X11130Y6090D2*
X11340D1*
X11510D2*
X11690D1*
X11130Y6060D2*
X11340D1*
X11520D2*
X11700D1*
X11130Y6030D2*
X11340D1*
X11531D2*
X11711D1*
X11130Y6000D2*
X11340D1*
X11544D2*
X11724D1*
X11130Y5970D2*
X11340D1*
X11557D2*
X11737D1*
X11130Y5940D2*
X11340D1*
X11569D2*
X11749D1*
X11130Y5910D2*
X11340D1*
X11579D2*
X11759D1*
X10500Y5880D2*
X10740D1*
X11130D2*
X11340D1*
X11590D2*
X11771D1*
X10530Y5850D2*
X10770D1*
X11130D2*
X11340D1*
X11600D2*
X11784D1*
X10560Y5820D2*
X10800D1*
X11130D2*
X11340D1*
X11610D2*
X11797D1*
X10590Y5790D2*
X10830D1*
X11130D2*
X11340D1*
X11621D2*
X11809D1*
X10620Y5760D2*
X10860D1*
X11130D2*
X11340D1*
X11634D2*
X11819D1*
X10650Y5730D2*
X10890D1*
X11130D2*
X11340D1*
X11647D2*
X11830D1*
X10680Y5700D2*
X10920D1*
X11130D2*
X11340D1*
X11659D2*
X11840D1*
X10710Y5670D2*
X10950D1*
X11130D2*
X11340D1*
X11669D2*
X11850D1*
X10740Y5640D2*
X10980D1*
X11130D2*
X11340D1*
X11681D2*
X11861D1*
X10770Y5610D2*
X11011D1*
X11129D2*
X11340D1*
X11694D2*
X11874D1*
X10800Y5580D2*
X11046D1*
X11124D2*
X11340D1*
X11707D2*
X11887D1*
X10830Y5550D2*
X11086D1*
X11114D2*
X11340D1*
X11719D2*
X11899D1*
X10860Y5520D2*
X11340D1*
X11729D2*
X11909D1*
X10835Y5490D2*
X11340D1*
X11740D2*
X11920D1*
X10813Y5460D2*
X11340D1*
X11750D2*
X11930D1*
X10795Y5430D2*
X11340D1*
X11760D2*
X11940D1*
X10777Y5400D2*
X11340D1*
X11771D2*
X11951D1*
X10759Y5370D2*
X11340D1*
X11784D2*
X11964D1*
X10739Y5340D2*
X10945D1*
X11040D2*
X11340D1*
X11797D2*
X11977D1*
X10720Y5310D2*
X10937D1*
X11069D2*
X11340D1*
X11809D2*
X11989D1*
X10700Y5280D2*
X10924D1*
X11094D2*
X11340D1*
X11819D2*
X11999D1*
X10680Y5250D2*
X10908D1*
X11112D2*
X11340D1*
X11830D2*
X12011D1*
X10660Y5220D2*
X10889D1*
X11122D2*
X11340D1*
X11840D2*
X12024D1*
X10640Y5190D2*
X10870D1*
X11127D2*
X11340D1*
X11850D2*
X12037D1*
X10620Y5160D2*
X10850D1*
X11129D2*
X11340D1*
X11861D2*
X12049D1*
X12270D2*
X12510D1*
X10600Y5130D2*
X10830D1*
X11130D2*
X11340D1*
X11874D2*
X12059D1*
X12270D2*
X12510D1*
X10580Y5100D2*
X10810D1*
X11130D2*
X11340D1*
X11887D2*
X12070D1*
X12270D2*
X12510D1*
X10560Y5070D2*
X10790D1*
X11130D2*
X11340D1*
X11899D2*
X12080D1*
X12270D2*
X12510D1*
X10540Y5040D2*
X10770D1*
X11130D2*
X11340D1*
X11909D2*
X12090D1*
X12270D2*
X12510D1*
X10519Y5010D2*
X10751D1*
X11130D2*
X11340D1*
X11921D2*
X12101D1*
X12270D2*
X12510D1*
X10495Y4980D2*
X10735D1*
X11130D2*
X11340D1*
X11934D2*
X12114D1*
X12270D2*
X12510D1*
X10468Y4950D2*
X10721D1*
X11130D2*
X11340D1*
X11947D2*
X12127D1*
X12270D2*
X12510D1*
X10440Y4920D2*
X10710D1*
X11130D2*
X11340D1*
X11959D2*
X12139D1*
X12270D2*
X12510D1*
X11970Y4890D2*
X12150D1*
X11430Y6270D2*
X11448Y6240D1*
X11465Y6210D1*
X11478Y6180D1*
X11489Y6150D1*
X11500Y6120D1*
X11510Y6090D1*
X11520Y6060D1*
X11531Y6030D1*
X11544Y6000D1*
X11557Y5970D1*
X11569Y5940D1*
X11579Y5910D1*
X11590Y5880D1*
X11600Y5850D1*
X11610Y5820D1*
X11621Y5790D1*
X11634Y5760D1*
X11647Y5730D1*
X11659Y5700D1*
X11669Y5670D1*
X11681Y5640D1*
X11694Y5610D1*
X11707Y5580D1*
X11719Y5550D1*
X11729Y5520D1*
X11740Y5490D1*
X11750Y5460D1*
X11760Y5430D1*
X11771Y5400D1*
X11784Y5370D1*
X11797Y5340D1*
X11809Y5310D1*
X11819Y5280D1*
X11830Y5250D1*
X11840Y5220D1*
X11850Y5190D1*
X11861Y5160D1*
X11874Y5130D1*
X11887Y5100D1*
X11899Y5070D1*
X11909Y5040D1*
X11921Y5010D1*
X11934Y4980D1*
X11947Y4950D1*
X11959Y4920D1*
X11970Y4890D1*
X11610Y6270D2*
X11628Y6240D1*
X11645Y6210D1*
X11658Y6180D1*
X11669Y6150D1*
X11680Y6120D1*
X11690Y6090D1*
X11700Y6060D1*
X11711Y6030D1*
X11724Y6000D1*
X11737Y5970D1*
X11749Y5940D1*
X11759Y5910D1*
X11771Y5880D1*
X11784Y5850D1*
X11797Y5820D1*
X11809Y5790D1*
X11819Y5760D1*
X11830Y5730D1*
X11840Y5700D1*
X11850Y5670D1*
X11861Y5640D1*
X11874Y5610D1*
X11887Y5580D1*
X11899Y5550D1*
X11909Y5520D1*
X11920Y5490D1*
X11930Y5460D1*
X11940Y5430D1*
X11951Y5400D1*
X11964Y5370D1*
X11977Y5340D1*
X11989Y5310D1*
X11999Y5280D1*
X12011Y5250D1*
X12024Y5220D1*
X12037Y5190D1*
X12049Y5160D1*
X12059Y5130D1*
X12070Y5100D1*
X12080Y5070D1*
X12090Y5040D1*
X12101Y5010D1*
X12114Y4980D1*
X12127Y4950D1*
X12139Y4920D1*
X12150Y4890D1*
X11130Y6240D2*
Y6210D1*
Y6180D1*
Y6150D1*
Y6120D1*
Y6090D1*
Y6060D1*
Y6030D1*
Y6000D1*
Y5970D1*
Y5940D1*
Y5910D1*
Y5880D1*
Y5850D1*
Y5820D1*
Y5790D1*
Y5760D1*
Y5730D1*
Y5700D1*
Y5670D1*
Y5640D1*
X11129Y5610D1*
X11124Y5580D1*
X11114Y5550D1*
X11100Y5520D1*
X11340Y6240D2*
Y6210D1*
Y6180D1*
Y6150D1*
Y6120D1*
Y6090D1*
Y6060D1*
Y6030D1*
Y6000D1*
Y5970D1*
Y5940D1*
Y5910D1*
Y5880D1*
Y5850D1*
Y5820D1*
Y5790D1*
Y5760D1*
Y5730D1*
Y5700D1*
Y5670D1*
Y5640D1*
Y5610D1*
Y5580D1*
Y5550D1*
Y5520D1*
Y5490D1*
Y5460D1*
Y5430D1*
Y5400D1*
Y5370D1*
Y5340D1*
Y5310D1*
Y5280D1*
Y5250D1*
Y5220D1*
Y5190D1*
Y5160D1*
Y5130D1*
Y5100D1*
Y5070D1*
Y5040D1*
Y5010D1*
Y4980D1*
Y4950D1*
Y4920D1*
X10500Y5880D2*
X10530Y5850D1*
X10560Y5820D1*
X10590Y5790D1*
X10620Y5760D1*
X10650Y5730D1*
X10680Y5700D1*
X10710Y5670D1*
X10740Y5640D1*
X10770Y5610D1*
X10800Y5580D1*
X10830Y5550D1*
X10860Y5520D1*
X10835Y5490D1*
X10813Y5460D1*
X10795Y5430D1*
X10777Y5400D1*
X10759Y5370D1*
X10739Y5340D1*
X10720Y5310D1*
X10700Y5280D1*
X10680Y5250D1*
X10660Y5220D1*
X10640Y5190D1*
X10620Y5160D1*
X10600Y5130D1*
X10580Y5100D1*
X10560Y5070D1*
X10540Y5040D1*
X10519Y5010D1*
X10495Y4980D1*
X10468Y4950D1*
X10440Y4920D1*
X10740Y5880D2*
X10770Y5850D1*
X10800Y5820D1*
X10830Y5790D1*
X10860Y5760D1*
X10890Y5730D1*
X10920Y5700D1*
X10950Y5670D1*
X10980Y5640D1*
X11011Y5610D1*
X11046Y5580D1*
X11086Y5550D1*
X11130Y5520D1*
X10950Y5370D2*
X10945Y5340D1*
X10937Y5310D1*
X10924Y5280D1*
X10908Y5250D1*
X10889Y5220D1*
X10870Y5190D1*
X10850Y5160D1*
X10830Y5130D1*
X10810Y5100D1*
X10790Y5070D1*
X10770Y5040D1*
X10751Y5010D1*
X10735Y4980D1*
X10721Y4950D1*
X10710Y4920D1*
X11010Y5370D2*
X11040Y5340D1*
X11069Y5310D1*
X11094Y5280D1*
X11112Y5250D1*
X11122Y5220D1*
X11127Y5190D1*
X11129Y5160D1*
X11130Y5130D1*
Y5100D1*
Y5070D1*
Y5040D1*
Y5010D1*
Y4980D1*
Y4950D1*
Y4920D1*
X12270Y5160D2*
Y5130D1*
Y5100D1*
Y5070D1*
Y5040D1*
Y5010D1*
Y4980D1*
Y4950D1*
Y4920D1*
X12510Y5160D2*
Y5130D1*
Y5100D1*
Y5070D1*
Y5040D1*
Y5010D1*
Y4980D1*
Y4950D1*
Y4920D1*
X4565Y4547D2*
D40*
Y4165D1*
D2*
X4589Y4093D1*
D2*
X4613Y4069D1*
D2*
X4661Y4045D1*
D2*
X4709D1*
D2*
X4756Y4069D1*
D2*
X4780Y4093D1*
D2*
X4804Y4165D1*
D2*
Y4212D1*
X4363Y4547D2*
X4100D1*
D2*
X4243Y4355D1*
D2*
X4171D1*
D2*
X4124Y4332D1*
D2*
X4100Y4308D1*
D2*
X4076Y4236D1*
D2*
Y4189D1*
D2*
X4100Y4117D1*
D2*
X4148Y4069D1*
D2*
X4219Y4045D1*
D2*
X4291D1*
D2*
X4363Y4069D1*
D2*
X4386Y4093D1*
D2*
X4411Y4140D1*
X12381Y7587D2*
D41*
X12438Y7645D1*
D2*
X12524Y7673D1*
D2*
X12639D1*
D2*
X12725Y7645D1*
D2*
X12783Y7587D1*
D2*
Y7530D1*
D2*
X12753Y7472D1*
D2*
X12725Y7444D1*
D2*
X12668Y7415D1*
D2*
X12495Y7358D1*
D2*
X12438Y7329D1*
D2*
X12409Y7300D1*
D2*
X12381Y7243D1*
D2*
Y7157D1*
D2*
X12438Y7100D1*
D2*
X12524Y7070D1*
D2*
X12639D1*
D2*
X12725Y7100D1*
D2*
X12783Y7157D1*
X11794Y7673D2*
Y7070D1*
D2*
X12195Y7673D1*
D2*
Y7070D1*
X11236Y7673D2*
X11608D1*
D2*
Y7070D1*
D2*
X11236D1*
X11608Y7386D2*
X11379D1*
X10648Y7587D2*
X10705Y7645D1*
D2*
X10792Y7673D1*
D2*
X10906D1*
D2*
X10993Y7645D1*
D2*
X11050Y7587D1*
D2*
Y7530D1*
D2*
X11021Y7472D1*
D2*
X10993Y7444D1*
D2*
X10936Y7415D1*
D2*
X10763Y7358D1*
D2*
X10705Y7329D1*
D2*
X10677Y7300D1*
D2*
X10648Y7243D1*
D2*
Y7157D1*
D2*
X10705Y7100D1*
D2*
X10792Y7070D1*
D2*
X10906D1*
D2*
X10993Y7100D1*
D2*
X11050Y7157D1*
X10434Y7529D2*
Y7558D1*
D2*
X10405Y7616D1*
D2*
X10377Y7644D1*
D2*
X10319Y7673D1*
D2*
X10204D1*
D2*
X10147Y7644D1*
D2*
X10119Y7616D1*
D2*
X10090Y7558D1*
D2*
Y7501D1*
D2*
X10119Y7443D1*
D2*
X10176Y7358D1*
D2*
X10463Y7070D1*
D2*
X10061D1*
X9876Y7673D2*
Y7243D1*
D2*
X9847Y7157D1*
D2*
X9790Y7100D1*
D2*
X9703Y7070D1*
D2*
X9646D1*
D2*
X9560Y7100D1*
D2*
X9502Y7157D1*
D2*
X9474Y7243D1*
D2*
Y7673D1*
X8887Y7587D2*
X8944Y7645D1*
D2*
X9030Y7673D1*
D2*
X9145D1*
D2*
X9231Y7645D1*
D2*
X9289Y7587D1*
D2*
Y7530D1*
D2*
X9259Y7472D1*
D2*
X9231Y7444D1*
D2*
X9174Y7415D1*
D2*
X9001Y7358D1*
D2*
X8944Y7329D1*
D2*
X8915Y7300D1*
D2*
X8887Y7243D1*
D2*
Y7157D1*
D2*
X8944Y7100D1*
D2*
X9030Y7070D1*
D2*
X9145D1*
D2*
X9231Y7100D1*
D2*
X9289Y7157D1*
X8701Y7673D2*
Y7070D1*
D2*
X8443D1*
D2*
X8357Y7100D1*
D2*
X8328Y7128D1*
D2*
X8300Y7185D1*
D2*
Y7271D1*
D2*
X8328Y7329D1*
D2*
X8357Y7358D1*
D2*
X8443Y7386D1*
D2*
X8357Y7415D1*
D2*
X8328Y7444D1*
D2*
X8300Y7501D1*
D2*
Y7559D1*
D2*
X8328Y7616D1*
D2*
X8357Y7645D1*
D2*
X8443Y7673D1*
D2*
X8701D1*
Y7386D2*
X8443D1*
X12865Y8957D2*
X12751Y8555D1*
D2*
X12636Y8957D1*
D2*
X12521Y8555D1*
D2*
X12406Y8957D1*
X12221D2*
X12106Y8555D1*
D2*
X11992Y8957D1*
D2*
X11877Y8555D1*
D2*
X11762Y8957D1*
X11577D2*
X11462Y8555D1*
D2*
X11347Y8957D1*
D2*
X11233Y8555D1*
D2*
X11118Y8957D1*
X10904Y8613D2*
X10933Y8583D1*
D2*
X10904Y8555D1*
D2*
X10875Y8583D1*
D2*
X10904Y8613D1*
X10690Y9158D2*
Y8555D1*
X10403Y8957D2*
X10690Y8670D1*
X10575Y8784D2*
X10374Y8555D1*
X10189Y8957D2*
Y8670D1*
D2*
X10160Y8584D1*
D2*
X10103Y8555D1*
D2*
X10016D1*
D2*
X9959Y8584D1*
D2*
X9873Y8670D1*
Y8957D2*
Y8555D1*
X9688Y8957D2*
Y8555D1*
Y8842D2*
X9602Y8928D1*
D2*
X9544Y8957D1*
D2*
X9458D1*
D2*
X9401Y8928D1*
D2*
X9372Y8842D1*
D2*
Y8555D1*
X8843Y8928D2*
Y8469D1*
D2*
X8871Y8383D1*
D2*
X8900Y8354D1*
D2*
X8957Y8325D1*
D2*
X9044D1*
D2*
X9101Y8354D1*
X8843Y8842D2*
X8900Y8899D1*
D2*
X8957Y8928D1*
D2*
X9044D1*
D2*
X9101Y8899D1*
D2*
X9158Y8842D1*
D2*
X9187Y8756D1*
D2*
Y8698D1*
D2*
X9158Y8613D1*
D2*
X9101Y8555D1*
D2*
X9044Y8526D1*
D2*
X8957D1*
D2*
X8900Y8555D1*
D2*
X8843Y8613D1*
X8428Y9158D2*
X8485D1*
D2*
X8543Y9129D1*
D2*
X8571Y9043D1*
D2*
Y8555D1*
X8657Y8957D2*
X8456D1*
X8243D2*
Y8670D1*
D2*
X8214Y8584D1*
D2*
X8156Y8555D1*
D2*
X8070D1*
D2*
X8013Y8584D1*
D2*
X7927Y8670D1*
Y8957D2*
Y8555D1*
X7742Y9158D2*
Y8555D1*
X7212Y8957D2*
Y8555D1*
Y8871D2*
X7269Y8928D1*
D2*
X7327Y8957D1*
D2*
X7412D1*
D2*
X7470Y8928D1*
D2*
X7527Y8871D1*
D2*
X7556Y8784D1*
D2*
Y8727D1*
D2*
X7527Y8641D1*
D2*
X7470Y8584D1*
D2*
X7412Y8555D1*
D2*
X7327D1*
D2*
X7269Y8584D1*
D2*
X7212Y8641D1*
X7027Y9158D2*
Y8555D1*
Y8871D2*
X6969Y8928D1*
D2*
X6912Y8957D1*
D2*
X6826D1*
D2*
X6769Y8928D1*
D2*
X6711Y8871D1*
D2*
X6683Y8784D1*
D2*
Y8727D1*
D2*
X6711Y8641D1*
D2*
X6769Y8584D1*
D2*
X6826Y8555D1*
D2*
X6912D1*
D2*
X6969Y8584D1*
D2*
X7027Y8641D1*
X6182Y8871D2*
X6210Y8928D1*
D2*
X6296Y8957D1*
D2*
X6383D1*
D2*
X6469Y8928D1*
D2*
X6497Y8871D1*
D2*
X6469Y8814D1*
D2*
X6411Y8784D1*
D2*
X6268Y8756D1*
D2*
X6210Y8727D1*
D2*
X6182Y8670D1*
D2*
Y8641D1*
D2*
X6210Y8584D1*
D2*
X6296Y8555D1*
D2*
X6383D1*
D2*
X6469Y8584D1*
D2*
X6497Y8641D1*
X5968Y8613D2*
X5996Y8583D1*
D2*
X5968Y8555D1*
D2*
X5939Y8583D1*
D2*
X5968Y8613D1*
X5409Y8871D2*
X5466Y8928D1*
D2*
X5524Y8957D1*
D2*
X5609D1*
D2*
X5667Y8928D1*
D2*
X5724Y8871D1*
D2*
X5753Y8784D1*
D2*
Y8727D1*
D2*
X5724Y8641D1*
D2*
X5667Y8584D1*
D2*
X5609Y8555D1*
D2*
X5524D1*
D2*
X5466Y8584D1*
D2*
X5409Y8641D1*
X5080Y8957D2*
X5137Y8928D1*
D2*
X5195Y8871D1*
D2*
X5223Y8784D1*
D2*
Y8727D1*
D2*
X5195Y8641D1*
D2*
X5137Y8584D1*
D2*
X5080Y8555D1*
D2*
X4994D1*
D2*
X4936Y8584D1*
D2*
X4879Y8641D1*
D2*
X4850Y8727D1*
D2*
Y8784D1*
D2*
X4879Y8871D1*
D2*
X4936Y8928D1*
D2*
X4994Y8957D1*
D2*
X5080D1*
X4665D2*
Y8555D1*
Y8842D2*
X4578Y8928D1*
D2*
X4521Y8957D1*
D2*
X4435D1*
D2*
X4377Y8928D1*
D2*
X4349Y8842D1*
D2*
Y8555D1*
Y8842D2*
X4263Y8928D1*
D2*
X4205Y8957D1*
D2*
X4119D1*
D2*
X4062Y8928D1*
D2*
X4033Y8842D1*
D2*
Y8555D1*
M02*
