G04 DipTrace 2.2.0.9*
%INBottom.ger*%
%MOIN*%
%ADD13C,0.012*%
%ADD14C,0.025*%
%ADD15C,0.013*%
%ADD20R,0.059X0.15*%
%ADD23C,0.04*%
%FSLAX44Y44*%
%SFA1B1*%
%OFA0B0*%
G04*
G70*
G90*
G75*
G01*
%LNBottom*%
%LPD*%
X8003Y4690D2*
D13*
X8565Y5252D1*
Y5690D1*
Y6440D1*
X9003Y6878D1*
Y8003D1*
X10440Y4440D2*
X10065D1*
X9565Y4940D1*
Y5690D1*
X7940Y7565D2*
X7065D1*
X6565Y7065D1*
Y5690D1*
X7940Y6752D2*
X8440Y7252D1*
Y7815D1*
X8190Y8065D1*
X5815D1*
X4565Y6815D1*
Y5690D1*
X7440Y7127D2*
Y5690D1*
X7565D1*
X6440Y7690D2*
Y7628D1*
X6003D1*
X5565Y7190D1*
Y5690D1*
D23*
X8003Y4690D3*
X9003Y8003D3*
X10440Y4440D3*
X7940Y7565D3*
Y6752D3*
X7440Y7127D3*
X6440Y7690D3*
X4350Y8806D2*
D14*
X12654D1*
X4350Y8558D2*
X12654D1*
X4350Y8309D2*
X5575D1*
X8430D2*
X8626D1*
X9375D2*
X12654D1*
X4350Y8060D2*
X5325D1*
X9489D2*
X12654D1*
X4350Y7812D2*
X5075D1*
X9450D2*
X12654D1*
X4350Y7563D2*
X4829D1*
X9352D2*
X12654D1*
X4350Y7314D2*
X4579D1*
X9352D2*
X12654D1*
X5926Y7065D2*
X6216D1*
X9352D2*
X12654D1*
X5914Y6817D2*
X6216D1*
X9348D2*
X12654D1*
X10149Y6568D2*
X12654D1*
X10149Y6319D2*
X12654D1*
X10149Y6071D2*
X12654D1*
X10149Y5822D2*
X12654D1*
X10149Y5573D2*
X12654D1*
X10149Y5325D2*
X12654D1*
X10149Y5076D2*
X12654D1*
X10149Y4827D2*
X12654D1*
X4350Y4579D2*
X7525D1*
X8477D2*
X12654D1*
X4350Y4330D2*
X7685D1*
X8321D2*
X12654D1*
X9278Y6705D2*
X10125D1*
Y4675D1*
X8465D1*
X8451Y4567D1*
X8402Y4452D1*
X8324Y4354D1*
X8283Y4325D1*
X12680D1*
Y9055D1*
X4325D1*
Y7035D1*
X5585Y8295D1*
X5688Y8364D1*
X5815Y8390D1*
X8190D1*
X8312Y8366D1*
X8420Y8295D1*
X8561Y8154D1*
X8625Y8273D1*
X8710Y8364D1*
X8817Y8429D1*
X8936Y8463D1*
X9061Y8464D1*
X9181Y8432D1*
X9289Y8369D1*
X9376Y8279D1*
X9436Y8170D1*
X9465Y8049D1*
X9468Y8003D1*
X9451Y7879D1*
X9402Y7764D1*
X9327Y7670D1*
X9328Y6878D1*
X9309Y6770D1*
X9307Y6767D1*
X7535Y4675D2*
X7005Y4679D1*
X6750Y4675D1*
X6005Y4679D1*
X5750Y4675D1*
X5005Y4679D1*
X4750Y4675D1*
X4324D1*
X4325Y4325D1*
X7712D1*
X7654Y4383D1*
X7584Y4486D1*
X7545Y4605D1*
X7542Y4679D1*
X5892Y6705D2*
X6125Y6701D1*
X6243Y6705D1*
X6240Y7065D1*
X6258Y7172D1*
X6182Y7304D1*
X6056Y7221D1*
X5893Y7058D1*
X5890Y6702D1*
X6130Y6705D1*
X9565D2*
D15*
Y4675D1*
Y5690D2*
X10125D1*
D20*
X9565D3*
X8565D3*
X7565D3*
X6565D3*
X5565D3*
X4565D3*
M02*
